<svg width="242" height="245" viewBox="0 0 242 245" fill="none" xmlns="http://www.w3.org/2000/svg">
<path d="M189.83 13.32C183.56 8.88 177.62 6.78 172.59 4.99C158.32 -0.0700002 147.71 0.3 120.61 0.26C109.03 0.24 97.4401 0 85.8501 0C71.4801 0.01 53.7201 0.02 33.2601 0C33.3301 13.93 33.3801 25.23 33.4101 33.09C33.4401 41.68 33.4601 46.02 33.4501 47.91C33.3901 63.32 33.0101 71.46 33.2601 78.96C33.4501 84.63 33.4501 86.01 33.4501 88.78V110.18C37.6401 105.44 44.8301 98.58 55.5501 93.47C61.7601 90.51 67.5301 88.92 72.1401 88.04V40.29C69.1201 40.35 66.3301 40.41 63.7501 40.46C68.9001 40.35 74.9201 40.23 81.8101 40.09L130.51 40.46C143.37 40.56 158.01 39.38 168.3 47.97C178.38 56.39 178.93 71.06 177.57 82.68C175.48 100.52 163.52 110.55 145.06 110.52C131.88 110.5 118.7 110.49 105.52 110.47C84.5701 110.44 52.5501 117 39.2001 137.49C35.0901 143.8 33.9301 149.55 33.4401 189.65C33.1701 212.24 33.2801 231.19 33.4601 244.99H72.1401C72.1401 243.22 72.1401 224.71 72.1401 222.95C72.1401 210.17 72.1401 203.78 72.1401 203.55C72.4801 177.58 72.6501 158.28 84.3801 149.93C89.4901 146.3 95.3201 145.6 99.4901 145.6H71.2901L114.94 145.44C135.62 145.36 158.64 148.39 178.54 142.81C217.65 131.84 216.98 82.25 217.21 77.1C218.21 55.35 210.3 27.83 189.83 13.33V13.32Z" fill="white"/>
</svg>
