<?xml version="1.0" encoding="UTF-8"?>
<svg id="Camada_1" data-name="Camada 1" xmlns="http://www.w3.org/2000/svg" viewBox="0 0 242 245">
  <path d="M189.83,13.32c-6.27-4.44-12.21-6.54-17.24-8.33C158.32-.07,147.71.3,120.61.26,109.03.24,97.44,0,85.85,0,71.48.01,53.72.02,33.26,0c.07,13.93.12,25.23.15,33.09.03,8.59.05,12.93.04,14.82-.06,15.41-.44,23.55-.19,31.05.19,5.67.19,7.05.19,9.82v21.4c4.19-4.74,11.38-11.6,22.1-16.71,6.21-2.96,11.98-4.55,16.59-5.43v-47.75c-3.02.06-5.81.12-8.39.17,5.15-.11,11.17-.23,18.06-.37l48.7.37c12.86.1,27.5-1.08,37.79,7.51,10.08,8.42,10.63,23.09,9.27,34.71-2.09,17.84-14.05,27.87-32.51,27.84-13.18-.02-26.36-.03-39.54-.05-20.95-.03-52.97,6.53-66.32,27.02-4.11,6.31-5.27,12.06-5.76,52.16-.27,22.59-.16,41.54.02,55.34h38.68c0-1.77,0-20.28,0-22.04,0-12.78,0-19.17,0-19.4.34-25.97.51-45.27,12.24-53.62,5.11-3.63,10.94-4.33,15.11-4.33h-28.2s43.65-.16,43.65-.16c20.68-.08,43.7,2.95,63.6-2.63,39.11-10.97,38.44-60.56,38.67-65.71,1-21.75-6.91-49.27-27.38-63.77Z"/>
</svg>
